<svg id="Layer_1" enable-background="new 0 0 512 512" height="512" viewBox="0 0 512 512" width="512" xmlns="http://www.w3.org/2000/svg"><g><path d="m488 232c-7.091 0-13.472 3.094-17.869 8h-38.866c-3.308-36.534-17.821-69.879-40.076-96.563l27.56-27.56c.433.023.866.062 1.299.062 6.146 0 12.291-2.339 16.969-7.016.002-.001.003-.002.004-.004 9.354-9.356 9.354-24.581-.004-33.941-9.354-9.354-24.581-9.355-33.941.003-5.006 5.008-7.306 11.696-6.953 18.268l-27.561 27.561c-26.683-22.254-60.028-36.767-96.562-40.075v-38.866c4.906-4.397 8-10.778 8-17.869 0-13.233-10.767-24-24-24s-24 10.767-24 24c0 7.091 3.094 13.472 8 17.869v38.866c-36.534 3.308-69.879 17.821-96.563 40.076l-27.56-27.561c.353-6.571-1.946-13.26-6.953-18.268-.001-.001-.002-.002-.004-.003-9.355-9.354-24.582-9.355-33.941.003-9.354 9.357-9.354 24.582.004 33.942 4.678 4.677 10.821 7.015 16.968 7.015.434 0 .866-.039 1.299-.062l27.561 27.561c-22.255 26.683-36.768 60.028-40.076 96.562h-38.866c-4.397-4.906-10.778-8-17.869-8-13.233 0-24 10.767-24 24s10.767 24 24 24c7.091 0 13.472-3.094 17.869-8h38.866c3.308 36.534 17.821 69.879 40.076 96.563l-27.561 27.56c-6.571-.353-13.26 1.947-18.268 6.953-.002.001-.003.002-.004.004-9.354 9.356-9.354 24.581.004 33.941 4.678 4.677 10.821 7.015 16.968 7.015 6.146 0 12.294-2.34 16.974-7.019 5.006-5.008 7.306-11.696 6.953-18.267l27.561-27.561c26.683 22.254 60.029 36.767 96.563 40.076v38.866c-4.906 4.397-8 10.778-8 17.869 0 13.233 10.767 24 24 24s24-10.767 24-24c0-7.091-3.094-13.472-8-17.869v-38.866c36.534-3.308 69.879-17.821 96.563-40.076l27.561 27.561c-.353 6.571 1.946 13.259 6.953 18.268.001.002.002.003.004.004 4.678 4.677 10.821 7.015 16.968 7.015 6.146 0 12.294-2.34 16.974-7.019 9.354-9.356 9.354-24.581-.004-33.941-5.007-5.006-11.696-7.306-18.267-6.953l-27.561-27.561c22.254-26.683 36.767-60.029 40.076-96.563h38.866c4.397 4.906 10.778 8 17.869 8 13.233 0 24-10.767 24-24s-10.77-24-24.003-24zm-136.631 96.742-52.06-52.06c.728-1.518 1.371-3.082 1.939-4.682h73.683c-2.83 21.142-11.185 40.555-23.562 56.742zm-168.111 22.627 52.06-52.06c1.518.728 3.082 1.371 4.682 1.939v73.683c-21.142-2.83-40.555-11.185-56.742-23.562zm-46.189-79.369h73.683c.568 1.6 1.211 3.165 1.939 4.682l-52.06 52.06c-12.377-16.187-20.732-35.6-23.562-56.742zm23.562-88.742 52.06 52.06c-.728 1.518-1.371 3.082-1.939 4.682h-73.683c2.83-21.142 11.185-40.555 23.562-56.742zm168.111-22.627-52.06 52.06c-1.518-.728-3.082-1.371-4.682-1.939v-73.683c21.142 2.83 40.555 11.185 56.742 23.562zm46.189 79.369h-73.683c-.568-1.6-1.211-3.165-1.939-4.682l52.06-52.06c12.377 16.187 20.732 35.6 23.562 56.742zm-102.931 16c0 8.822-7.178 16-16 16s-16-7.178-16-16 7.178-16 16-16 16 7.178 16 16zm-32-45.248c-1.6.568-3.165 1.211-4.682 1.939l-52.06-52.06c16.187-12.376 35.601-20.732 56.742-23.561zm32 90.496c1.6-.568 3.165-1.211 4.682-1.939l52.06 52.06c-16.187 12.376-35.601 20.732-56.742 23.561z"/></g></svg>