<svg width="646" height="722" xmlns="http://www.w3.org/2000/svg" xmlns:xlink="http://www.w3.org/1999/xlink" overflow="hidden"><defs><clipPath id="clip0"><rect x="634" y="-2" width="646" height="722"></rect></clipPath></defs><g clip-path="url(#clip0)" transform="translate(-634 2)"><path d="M839.394 468.331 839.394 650.065C933.385 669.517 981.401 687.868 1075.39 707.331L1075.39 525.591C981.401 506.145 933.385 487.784 839.394 468.331Z" fill="#0B68B3" fill-rule="evenodd"></path><path d="M1075.39 250.331 1075.39 68.5673C981.401 49.1263 933.374 30.7772 839.394 11.3309L839.394 193.078C933.385 212.532 981.401 230.877 1075.39 250.331Z" fill="#00A6AC" fill-rule="evenodd"></path><path d="M634.395 192.152 634.395 510.225C704.118 472.591 755.346 472.572 839.395 492.734L839.395 174.659C755.346 154.494 704.118 154.517 634.395 192.152Z" fill="#00A0E2" fill-rule="evenodd"></path><path d="M634.395 483.1 634.395 665.329C704.118 632.754 755.346 632.733 839.395 650.189L839.395 467.958C755.346 450.504 704.118 450.521 634.395 483.1Z" fill="#0A529C" fill-rule="evenodd"></path><path d="M839.395 193.185 839.395 10.9601C755.346-6.50274 704.118-6.46935 634.395 26.0917L634.395 208.329C704.118 175.748 755.346 175.728 839.395 193.185Z" fill="#0B7B93" fill-rule="evenodd"></path><path d="M1075.39 224.969 1075.39 559.063C1159.04 580.156 1210.18 580.236 1279.4 541.274L1279.4 207.186C1210.18 246.135 1159.04 246.049 1075.39 224.969Z" fill="#2C4198" fill-rule="evenodd"></path><path d="M1075.39 525.957 1075.39 707.723C1159.04 725.056 1210.18 725.132 1279.4 693.091L1279.4 511.331C1210.18 543.363 1159.04 543.297 1075.39 525.957Z" fill="#01378C" fill-rule="evenodd"></path><path d="M1279.4 235.975 1279.4 53.3276C1210.16 85.5109 1159.03 85.4265 1075.39 68.012L1075.39 250.666C1159.04 268.081 1210.18 268.152 1279.4 235.975Z" fill="#094072" fill-rule="evenodd"></path></g></svg>